<?xml version="1.0" encoding="utf-8"?>
<!-- Generator: Adobe Illustrator 16.0.3, SVG Export Plug-In . SVG Version: 6.00 Build 0)  -->
<!DOCTYPE svg PUBLIC "-//W3C//DTD SVG 1.1//EN" "http://www.w3.org/Graphics/SVG/1.1/DTD/svg11.dtd">
<svg version="1.1" id="Layer_1" xmlns="http://www.w3.org/2000/svg" xmlns:xlink="http://www.w3.org/1999/xlink" x="0px" y="0px"
	 width="498.613px" height="154.799px" viewBox="0 0 498.613 154.799" enable-background="new 0 0 498.613 154.799"
	 xml:space="preserve">
<g>
	<g>
		<path fill="#FFFFFF" d="M5.394,154.709c23.407,0.011,46.816-0.208,70.221,0.088c10.553,0.134,20.318-8.045,20.247-20.387
			c-0.134-23.406-0.03-46.813-0.046-70.222c-0.008-12.03-8.121-20.1-20.097-20.077c-11.008,0.021-22.02,0.046-33.029-0.057
			c-0.219-0.001-0.458-0.037-0.696-0.068c0.078,1.021,0.152,2.041,0.22,3.064c0.086,1.337,0.09,2.756,0.072,4.207
			c10.957,0.004,21.911,0.023,32.868,0.098c2.729,0.02,5.782,0.714,8.106,2.079c4.568,2.682,6.212,8.075,4.695,12.919
			c-1.543,4.93-6.006,8.192-11.413,8.195c-23.754,0.019-47.509,0.004-71.262-0.003c-4.096-0.001-5.275,1.129-5.275,5.212
			c-0.007,23.147-0.007,46.294,0,69.44C0.008,153.368,1.299,154.707,5.394,154.709z M8.006,85.169
			c-0.002-3.378,0.118-3.49,3.511-3.493c21.577-0.012,43.156,0.072,64.73-0.12c3.69-0.033,7.369-1.232,11.266-1.933
			c0.029,0.259,0.167,0.906,0.167,1.556c0.002,17.678-0.005,35.355-0.019,53.032c-0.005,8.032-4.329,12.388-12.334,12.386
			c-21.488-0.002-42.977-0.06-64.465,0.018c-2.342,0.008-2.885-0.702-2.876-2.953C8.062,124.163,8.013,104.666,8.006,85.169z"/>
	</g>
	<g>
		<path fill="#FFFFFF" d="M24.206,67.009c17.352,0.019,34.703,0.032,52.055,0.056c1.56,0.001,3.267-0.215,3.319-4.067
			c0.053-3.933-1.657-4.254-3.214-4.237c-0.348,0.004-0.694,0.007-1.042,0.007H41.505v0.019c-5.735,0-11.47,0.005-17.205,0.006
			C23.833,61.54,23.589,64.309,24.206,67.009z"/>
	</g>
</g>
<g>
	<path fill="#FFFFFF" d="M71.996,46.237h-7V31.619L64.493,0l47.718,17.085L71.996,32.92V46.237z M71.653,9.999l0.245,15.436
		l20.416-8.039L71.653,9.999z"/>
</g>
<g>
	<circle fill="#FFFFFF" cx="78.716" cy="135.809" r="3.563"/>
</g>
<g>
	<circle fill="#FFFFFF" cx="71.216" cy="123.872" r="3.563"/>
</g>
<g>
	<circle fill="#FFFFFF" cx="57.834" cy="120.621" r="3.563"/>
</g>
<g>
	<circle fill="#FFFFFF" cx="46.338" cy="122.026" r="3.563"/>
</g>
<g>
	<circle fill="#FFFFFF" cx="35.366" cy="128.151" r="3.563"/>
</g>
<g>
	<circle fill="#FFFFFF" cx="21.903" cy="126.279" r="3.563"/>
</g>
<g>
	<circle fill="#FFFFFF" cx="17.838" cy="115.269" r="3.563"/>
</g>
<g>
	<circle fill="#FFFFFF" cx="20.274" cy="103.894" r="3.563"/>
</g>
<g>
	<circle fill="#FFFFFF" cx="32.054" cy="98.082" r="3.563"/>
</g>
<g>
	<circle fill="#FFFFFF" cx="43.588" cy="92.956" r="3.563"/>
</g>
<g>
	<path fill="#FFFFFF" d="M129.534,148.091c-4.482,0-6.723-2.283-6.723-6.852V62.896c0-4.566,2.283-6.852,6.852-6.852h30.897
		c9.825,0,17.408,2.349,22.753,7.045c5.343,4.698,8.015,11.27,8.015,19.714c0,6.811-1.81,12.391-5.43,16.741
		c-3.62,4.354-8.749,7.262-15.384,8.727c4.137,1.38,7.627,4.698,10.471,9.954l11.118,20.686c1.293,2.326,1.551,4.438,0.776,6.334
		c-0.776,1.896-2.543,2.845-5.3,2.845c-1.897,0-3.448-0.388-4.654-1.164c-1.208-0.775-2.242-2.023-3.103-3.749l-13.574-25.079
		c-1.81-3.361-3.901-5.624-6.27-6.787c-2.372-1.164-5.409-1.745-9.114-1.745h-14.608v31.674
		C136.256,145.808,134.014,148.091,129.534,148.091z M136.256,99.481h22.106c13.271,0,19.909-5.472,19.909-16.418
		c0-10.858-6.637-16.289-19.909-16.289h-22.106V99.481z"/>
	<path fill="#FFFFFF" d="M247.173,148.349c-12.151,0-21.439-3.209-27.858-9.631c-6.421-6.419-9.631-15.836-9.631-28.247V61.862
		c0-4.479,2.24-6.722,6.723-6.722c4.48,0,6.722,2.242,6.722,6.722v48.351c0,17.668,8.015,26.501,24.045,26.501
		c16.031,0,24.047-8.833,24.047-26.501V61.862c0-4.479,2.196-6.722,6.592-6.722c4.396,0,6.595,2.242,6.595,6.722v48.607
		c0,12.411-3.147,21.828-9.438,28.247C268.676,145.14,259.41,148.349,247.173,148.349z"/>
	<path fill="#FFFFFF" d="M311.552,148.091c-4.137,0-6.205-2.111-6.205-6.335v-80.28c0-4.222,2.068-6.334,6.205-6.334
		c1.811,0,3.21,0.345,4.201,1.034c0.99,0.69,1.917,1.81,2.779,3.361l31.803,59.467l31.802-59.467c0.86-1.552,1.787-2.67,2.779-3.361
		c0.99-0.689,2.347-1.034,4.072-1.034c3.963,0,5.945,2.113,5.945,6.334v80.28c0,4.224-1.982,6.335-5.945,6.335
		c-4.053,0-6.076-2.111-6.076-6.335V80.479l-27.147,50.029c-0.69,1.293-1.423,2.242-2.197,2.844
		c-0.775,0.604-1.854,0.905-3.231,0.905c-1.467,0-2.608-0.323-3.426-0.97c-0.82-0.646-1.574-1.571-2.263-2.779l-27.148-49.9v61.147
		C317.498,145.979,315.515,148.091,311.552,148.091z"/>
	<path fill="#FFFFFF" d="M455.952,148.349c-8.706,0-16.246-1.917-22.623-5.752c-6.379-3.834-11.313-9.264-14.803-16.289
		c-3.49-7.022-5.235-15.274-5.235-24.757c0-9.566,1.745-17.84,5.235-24.821c3.49-6.98,8.424-12.365,14.803-16.16
		c6.377-3.791,13.917-5.688,22.623-5.688c8.617,0,16.138,1.896,22.559,5.688c6.42,3.793,11.376,9.18,14.867,16.16
		c3.49,6.981,5.235,15.212,5.235,24.692c0,9.565-1.745,17.862-5.235,24.886c-3.491,7.025-8.447,12.455-14.867,16.289
		C472.09,146.432,464.569,148.349,455.952,148.349z M455.952,136.714c9.05,0,16.095-3.08,21.137-9.243
		c5.042-6.16,7.563-14.802,7.563-25.92c0-11.117-2.501-19.734-7.498-25.854c-4.999-6.118-12.067-9.18-21.201-9.18
		c-9.05,0-16.095,3.062-21.137,9.18c-5.042,6.12-7.563,14.737-7.563,25.854c0,11.118,2.521,19.76,7.563,25.92
		C439.857,133.634,446.902,136.714,455.952,136.714z"/>
</g>
</svg>
