<?xml version="1.0" encoding="utf-8"?>
<!-- Generator: Adobe Illustrator 16.0.3, SVG Export Plug-In . SVG Version: 6.00 Build 0)  -->
<!DOCTYPE svg PUBLIC "-//W3C//DTD SVG 1.1//EN" "http://www.w3.org/Graphics/SVG/1.1/DTD/svg11.dtd">
<svg version="1.1" id="Layer_1" xmlns="http://www.w3.org/2000/svg" xmlns:xlink="http://www.w3.org/1999/xlink" x="0px" y="0px"
	 width="471.998px" height="154.799px" viewBox="0 0 471.998 154.799" enable-background="new 0 0 471.998 154.799"
	 xml:space="preserve">
<g>
	<path fill="#1E2D5D" d="M134.085,151.093c-2.758,0-4.137-1.469-4.137-4.412V57.465c0-2.941,1.424-4.413,4.274-4.413h32.405
		c10.387,0,18.315,2.392,23.786,7.17c5.468,4.781,8.205,11.583,8.205,20.408c0,7.263-1.978,13.147-5.93,17.65
		c-3.954,4.505-9.562,7.401-16.822,8.687c3.951,1.472,7.446,5.057,10.479,10.755l14.617,27.165c0.827,1.564,0.986,2.989,0.482,4.275
		c-0.506,1.286-1.541,1.93-3.103,1.93c-2.206,0-3.861-1.056-4.964-3.171l-15.443-28.819c-2.392-4.32-5.057-7.215-7.998-8.687
		c-2.943-1.469-6.895-2.206-11.858-2.206h-19.719v38.472C138.359,149.624,136.933,151.093,134.085,151.093z M138.359,101.039h27.165
		c16.362,0,24.545-6.802,24.545-20.408c0-13.513-8.183-20.27-24.545-20.27h-27.165V101.039z"/>
	<path fill="#1E2D5D" d="M259.981,151.369c-8.918,0-16.616-2.021-23.098-6.067c-6.48-4.044-11.492-9.791-15.029-17.237
		c-3.541-7.446-5.309-16.271-5.309-26.475c0-10.204,1.745-19.029,5.24-26.475c3.493-7.446,8.502-13.168,15.03-17.167
		c6.526-3.999,14.248-5.998,23.166-5.998c9.008,0,16.753,2,23.234,5.998c6.48,3.999,11.49,9.7,15.03,17.099
		c3.537,7.401,5.309,16.202,5.309,26.406c0,10.296-1.771,19.167-5.309,26.613c-3.54,7.446-8.573,13.192-15.1,17.237
		C276.618,149.348,268.896,151.369,259.981,151.369z M259.981,143.647c10.938,0,19.442-3.676,25.51-11.031
		c6.066-7.354,9.101-17.695,9.101-31.026c0-13.328-3.012-23.648-9.032-30.957c-6.021-7.308-14.547-10.962-25.578-10.962
		c-10.941,0-19.422,3.678-25.441,11.032c-6.021,7.355-9.031,17.65-9.031,30.887c0,13.238,3.01,23.558,9.031,30.957
		C240.559,139.948,249.04,143.647,259.981,143.647z"/>
	<path fill="#1E2D5D" d="M347.126,151.093c-2.851,0-4.275-1.469-4.275-4.412V60.637h-32.956c-2.758,0-4.137-1.286-4.137-3.861
		c0-2.482,1.379-3.723,4.137-3.723h74.6c2.665,0,3.999,1.241,3.999,3.723c0,2.575-1.334,3.861-3.999,3.861h-33.094v86.044
		C351.401,149.624,349.974,151.093,347.126,151.093z"/>
	<path fill="#1E2D5D" d="M386.838,151.093c-1.84,0-3.033-0.575-3.585-1.724c-0.552-1.148-0.461-2.551,0.276-4.206l38.747-89.078
		c1.104-2.573,2.803-3.861,5.102-3.861c2.297,0,3.999,1.288,5.103,3.861l38.747,89.078c0.827,1.655,0.987,3.058,0.482,4.206
		c-0.506,1.148-1.633,1.724-3.378,1.724c-1.288,0-2.322-0.345-3.103-1.034c-0.782-0.689-1.448-1.631-1.999-2.827l-9.791-22.89
		h-52.122l-9.791,22.89C390.424,149.807,388.86,151.093,386.838,151.093z M427.241,63.533l-22.752,53.501h45.78l-22.752-53.501
		H427.241z"/>
</g>
<g>
	<g>
		<path fill-rule="evenodd" clip-rule="evenodd" fill="#1E2D5D" d="M5.394,154.709c23.407,0.011,46.816-0.208,70.221,0.088
			c10.553,0.134,20.318-8.045,20.247-20.387c-0.134-23.406-0.03-46.814-0.046-70.221c-0.008-12.031-8.121-20.1-20.097-20.077
			c-11.008,0.02-22.02,0.045-33.029-0.057c-0.219-0.001-0.458-0.037-0.696-0.068c0.078,1.02,0.152,2.041,0.22,3.064
			c0.086,1.337,0.09,2.756,0.072,4.207c10.957,0.004,21.911,0.023,32.868,0.098c2.729,0.019,5.782,0.714,8.106,2.079
			c4.568,2.681,6.212,8.075,4.695,12.919c-1.543,4.929-6.006,8.192-11.413,8.195c-23.754,0.019-47.509,0.004-71.262-0.003
			c-4.096-0.001-5.275,1.129-5.275,5.212c-0.007,23.147-0.007,46.294,0,69.44C0.008,153.368,1.299,154.707,5.394,154.709z
			 M8.006,85.169c-0.002-3.378,0.118-3.49,3.511-3.493c21.577-0.012,43.156,0.072,64.73-0.12c3.69-0.034,7.369-1.234,11.266-1.933
			c0.029,0.259,0.167,0.907,0.167,1.556c0.002,17.678-0.005,35.355-0.019,53.032c-0.005,8.032-4.329,12.388-12.334,12.386
			c-21.488-0.002-42.977-0.06-64.465,0.016c-2.342,0.008-2.885-0.702-2.876-2.953C8.062,124.163,8.013,104.666,8.006,85.169z"/>
	</g>
	<g>
		<path fill-rule="evenodd" clip-rule="evenodd" fill="#1E2D5D" d="M24.206,67.009c17.352,0.019,34.703,0.032,52.055,0.056
			c1.56,0.001,3.267-0.215,3.319-4.068c0.053-3.932-1.657-4.254-3.214-4.237c-0.348,0.004-0.694,0.007-1.042,0.007H41.505v0.018
			c-5.735,0-11.47,0.005-17.205,0.006C23.833,61.54,23.589,64.309,24.206,67.009z"/>
	</g>
</g>
<g>
	<path fill="#1E2D5D" d="M71.996,46.238h-7V31.619L64.493,0l47.718,17.085L71.996,32.92V46.238z M71.653,9.999l0.245,15.436
		l20.416-8.039L71.653,9.999z"/>
</g>
<g>
	<circle fill="#1E2D5D" cx="78.716" cy="135.809" r="3.563"/>
</g>
<g>
	<circle fill="#1E2D5D" cx="71.216" cy="123.872" r="3.563"/>
</g>
<g>
	<circle fill="#1E2D5D" cx="57.834" cy="120.621" r="3.563"/>
</g>
<g>
	<circle fill="#1E2D5D" cx="46.338" cy="122.026" r="3.563"/>
</g>
<g>
	<circle fill="#1E2D5D" cx="35.366" cy="128.151" r="3.563"/>
</g>
<g>
	<circle fill="#1E2D5D" cx="21.903" cy="126.279" r="3.563"/>
</g>
<g>
	<circle fill="#1E2D5D" cx="17.838" cy="115.269" r="3.563"/>
</g>
<g>
	<circle fill="#1E2D5D" cx="20.274" cy="103.894" r="3.563"/>
</g>
<g>
	<circle fill="#1E2D5D" cx="32.054" cy="98.082" r="3.563"/>
</g>
<g>
	<circle fill="#1E2D5D" cx="43.588" cy="92.956" r="3.563"/>
</g>
</svg>
