<?xml version="1.0" encoding="utf-8"?>
<!-- Generator: Adobe Illustrator 16.0.3, SVG Export Plug-In . SVG Version: 6.00 Build 0)  -->
<!DOCTYPE svg PUBLIC "-//W3C//DTD SVG 1.1//EN" "http://www.w3.org/Graphics/SVG/1.1/DTD/svg11.dtd">
<svg version="1.1" id="Layer_1" xmlns="http://www.w3.org/2000/svg" xmlns:xlink="http://www.w3.org/1999/xlink" x="0px" y="0px"
	 width="341.5px" height="321.96px" viewBox="0 0 341.5 321.96" enable-background="new 0 0 341.5 321.96" xml:space="preserve">
<g>
	<path fill="#FBB040" d="M9,321.96c-4.971,0-9-4.029-9-9V231h277.73L75.433,15.154c-3.399-3.626-3.214-9.322,0.413-12.721
		c3.627-3.398,9.322-3.214,12.721,0.412L319.27,249H18v63.96C18,317.931,13.971,321.96,9,321.96z"/>
</g>
<g>
	<path fill="#DB6840" d="M82,319.25c-4.971,0-9-4.029-9-9V9c0-4.971,4.029-9,9-9s9,4.029,9,9v301.25
		C91,315.221,86.971,319.25,82,319.25z"/>
</g>
<g>
	<path fill="#8DC63F" d="M304.75,249c-4.971,0-9-4.029-9-9V107.978l-92.614-92.614c-3.515-3.515-3.515-9.213,0-12.728
		c3.515-3.515,9.213-3.515,12.728,0l97.886,97.886V240C313.75,244.971,309.721,249,304.75,249z"/>
</g>
<g>
	<path fill="#4FB5AD" d="M81.624,320.875c-2.229,0-4.46-0.822-6.202-2.479c-3.601-3.426-3.743-9.123-0.317-12.724L170.5,205.403V9
		c0-4.971,4.029-9,9-9s9,4.029,9,9v203.597L88.146,318.078C86.376,319.938,84.002,320.875,81.624,320.875z"/>
</g>
<g>
	<path fill="#EF3C3B" d="M244.728,128H9c-4.971,0-9-4.029-9-9s4.029-9,9-9h228.272l88.863-88.864c3.516-3.515,9.213-3.515,12.729,0
		c3.515,3.515,3.515,9.213,0,12.728L244.728,128z"/>
</g>
<g>
	<circle fill="#58595B" cx="81" cy="117.25" r="16.25"/>
	<path fill="#FFFFFF" d="M81,137.5c-11.166,0-20.25-9.084-20.25-20.25S69.834,97,81,97s20.25,9.084,20.25,20.25
		S92.166,137.5,81,137.5z M81,105c-6.755,0-12.25,5.495-12.25,12.25S74.245,129.5,81,129.5s12.25-5.495,12.25-12.25
		S87.755,105,81,105z"/>
</g>
<g>
	<circle fill="#58595B" cx="148" cy="240" r="16.25"/>
	<path fill="#FFFFFF" d="M148,260.25c-11.166,0-20.25-9.084-20.25-20.25s9.084-20.25,20.25-20.25s20.25,9.084,20.25,20.25
		S159.166,260.25,148,260.25z M148,227.75c-6.755,0-12.25,5.495-12.25,12.25s5.495,12.25,12.25,12.25s12.25-5.495,12.25-12.25
		S154.755,227.75,148,227.75z"/>
</g>
<g>
	<circle fill="#58595B" cx="179.5" cy="119" r="16.25"/>
	<path fill="#FFFFFF" d="M179.5,139.25c-11.166,0-20.25-9.084-20.25-20.25s9.084-20.25,20.25-20.25s20.25,9.084,20.25,20.25
		S190.666,139.25,179.5,139.25z M179.5,106.75c-6.755,0-12.25,5.495-12.25,12.25s5.495,12.25,12.25,12.25s12.25-5.495,12.25-12.25
		S186.255,106.75,179.5,106.75z"/>
</g>
<g>
	<path fill="#8DC63F" d="M304.75,321.96c-4.971,0-9-4.029-9-9V240c0-4.971,4.029-9,9-9s9,4.029,9,9v72.96
		C313.75,317.931,309.721,321.96,304.75,321.96z"/>
</g>
<g>
	<circle fill="#58595B" cx="304.75" cy="240" r="16.25"/>
	<path fill="#FFFFFF" d="M304.75,260.25c-11.166,0-20.25-9.084-20.25-20.25s9.084-20.25,20.25-20.25S325,228.834,325,240
		S315.916,260.25,304.75,260.25z M304.75,227.75c-6.755,0-12.25,5.495-12.25,12.25s5.495,12.25,12.25,12.25S317,246.755,317,240
		S311.505,227.75,304.75,227.75z"/>
</g>
</svg>
